<?xml version="1.0" encoding="utf-8"?>
<!-- Svg Vector Icons : http://www.onlinewebfonts.com/icon -->
<!DOCTYPE svg PUBLIC "-//W3C//DTD SVG 1.1//EN" "http://www.w3.org/Graphics/SVG/1.1/DTD/svg11.dtd">
<svg version="1.1" xmlns="http://www.w3.org/2000/svg" xmlns:xlink="http://www.w3.org/1999/xlink" x="0px" y="0px" viewBox="0 0 1000 1000" enable-background="new 0 0 1000 1000" xml:space="preserve" fill="rgb(147 51 234)">
<metadata> Svg Vector Icons : http://www.onlinewebfonts.com/icon </metadata>
<g><g transform="translate(0.000000,511.000000) scale(0.100000,-0.100000)"><path d="M8111.6,4957.3c-204.5-136.3-185.3-451.6,31.9-556c215.2-102.3,460.1,49,460.1,283.3C8603.7,4940.3,8320.4,5097.9,8111.6,4957.3z"/><path d="M7229.7,4092.4c-319.5-144.9-406.9-575.2-166.2-822.3c104.4-108.7,223.7-159.8,374.9-159.8c296.1,0,513.4,215.1,513.4,511.3c0,213-121.4,398.4-311,477.2C7532.2,4145.7,7336.2,4141.4,7229.7,4092.4z"/><path d="M5670.4,3960.4c-119.3-21.3-193.8-63.9-287.6-157.6c-125.7-125.7-155.5-208.8-155.5-415.4c0-219.4,21.3-264.2,223.7-477.2l147-153.4L5007.9,2171l-590.1-585.8l-181.1,40.5c-279.1,63.9-973.5,63.9-1271.7-2.1C1974.4,1408.3,1165,786.3,715.5-106.3C606.8-321.4,491.8-653.7,434.3-915.7c-46.9-215.2-66-807.4-34.1-1054.5c191.7-1465.6,1335.7-2607.4,2807.6-2803.4c262-34.1,811.6-12.8,1075.8,42.6c688.1,149.1,1350.6,541.1,1789.4,1063c541.1,641.2,818,1442.2,777.5,2251.7c-10.7,227.9-57.5,570.9-89.5,651.8c-6.4,19.2,210.9,251.4,573,613.5l585.8,585.8l155.5-149.1c208.8-198.1,281.2-232.2,496.3-232.2c191.7,2.1,291.9,40.5,409,164c153.4,159.8,202.4,432.4,110.8,634.8c-63.9,144.9-2926.9,3005.8-3065.4,3063.3C5904.7,3968.9,5783.3,3983.8,5670.4,3960.4z M5926,3683.4c66.1-34.1,2886.5-2850.2,2924.8-2920.5c76.7-147,8.5-351.5-140.6-426c-170.4-87.3-294-36.2-553.9,225.8c-129.9,134.2-193.8,183.2-234.3,183.2c-40.5,0-206.6-153.4-754.1-700.8c-613.5-613.5-698.7-707.2-685.9-752c6.4-25.6,34.1-144.8,59.6-262c61.8-283.3,66-843.6,10.7-1126.9c-242.9-1210-1139.7-2128.1-2336.9-2388c-253.5-55.4-773.3-66-1054.5-23.4c-630.5,98-1195.1,385.6-1650.9,843.6c-336.6,334.5-558.1,685.9-709.4,1120.5c-129.9,370.7-153.4,524.1-153.4,988.4c0,443.1,10.6,524,121.4,884.1c306.8,1014,1135.4,1780.9,2196.3,2028c210.9,51.1,285.5,57.5,632.7,57.5c336.6,2.1,428.2-4.3,632.7-49c132.1-27.7,259.9-44.7,287.6-38.3c27.7,8.5,353.6,317.4,726.4,692.3c524,524,675.3,688.1,675.3,730.7c0,38.3-51.1,102.2-183.2,232.2c-242.9,242.8-272.7,291.8-259.9,438.8c8.5,91.6,23.4,130,72.4,181.1c34.1,36.2,80.9,74.6,104.4,83.1C5715.1,3713.2,5872.8,3711.1,5926,3683.4z"/><path d="M1094.7-858.2c-215.2-98-306.8-472.9-247.1-994.8C977.5-2965,1706-3859.7,2756.2-4202.7c308.9-100.1,487.8-127.8,841.4-127.8c366.4-2.1,573,29.8,892.6,134.2c809.5,264.2,1486.9,939.4,1757.4,1751c102.2,304.6,129.9,492.1,129.9,879.8v362.1l-70.3,142.7c-57.5,117.1-85.2,149.1-159.8,185.3c-178.9,87.4-379.2,53.3-1007.6-166.2c-720-251.4-1071.5-328-1510.3-328c-462.3-2.1-734.9,57.5-1580.6,338.7c-464.4,157.6-570.9,185.3-717.9,191.7C1211.8-832.7,1139.4-839.1,1094.7-858.2z M2400.5-1384.4c95.9-59.6,153.4-161.9,153.4-279.1c0-319.5-426-436.7-598.6-164c-66,106.5-49,291.8,36.2,381.3c34.1,36.2,80.9,74.6,104.4,83.1C2174.7-1329,2328.1-1339.7,2400.5-1384.4z M5131.4-1488.8c121.4-63.9,174.7-161.9,166.2-300.4c-12.8-193.9-132.1-306.8-319.5-306.8c-115,0-189.6,44.7-268.4,159.8c-40.5,59.6-49,93.7-42.6,181.1C4686.2-1512.2,4922.7-1375.9,5131.4-1488.8z M4051.4-1642.2c81-87.3,78.8-191.7-4.3-276.9c-81-80.9-185.3-83.1-274.8-8.5c-117.2,98-93.7,281.2,42.6,340.8C3906.6-1548.4,3976.9-1565.5,4051.4-1642.2z M3178-1989.4c102.3-95.9,98-236.4-12.8-319.5c-149.1-110.8-370.7,29.8-325.9,208.8C2877.7-1944.6,3065.1-1885,3178-1989.4z"/><path d="M8593.1,3323.4c-566.6-187.5-728.5-911.7-296.1-1320.7c159.8-151.3,272.7-198.1,509.1-208.8c159.8-6.4,213,0,315.3,38.3c161.9,61.8,355.8,238.6,434.6,400.5c53.3,108.7,59.6,144.9,59.6,334.5c0,198.1-4.3,223.7-68.2,353.6c-132.1,266.3-366.4,421.8-662.5,436.7C8759.2,3363.9,8691,3355.4,8593.1,3323.4z"/></g></g>
</svg>